{
  "accessors": [
    {
      "bufferView": 2,
      "componentType": 5126,
      "count": 65532,
      "max": [
        0.5499089956283569,
        0.9343780279159546,
        0.20147700607776642
      ],
      "min": [
        -0.5787860155105591,
        -0.9362639784812927,
        -0.19754600524902344
      ],
      "type": "VEC3"
    },
    {
      "bufferView": 2,
      "byteOffset": 786384,
      "componentType": 5126,
      "count": 65532,
      "max": [
        0.9999616146087646,
        0.9999930262565613,
        0.9999929666519165
      ],
      "min": [
        -0.9999659657478333,
        -0.9999899864196777,
        -0.9999984502792358
      ],
      "type": "VEC3"
    },
    {
      "bufferView": 3,
      "componentType": 5126,
      "count": 65532,
      "max": [
        0.9999978542327881,
        0.9999547004699707,
        0.9999657273292542,
        1.0
      ],
      "min": [
        -0.99994295835495,
        -0.9999505877494812,
        -0.9999693632125854,
        -1.0
      ],
      "type": "VEC4"
    },
    {
      "bufferView": 1,
      "componentType": 5126,
      "count": 65532,
      "max": [
        0.999983012676239,
        0.9998900294303894
      ],
      "min": [
        0.0005099999834783375,
        0.0006420016288757324
      ],
      "type": "VEC2"
    },
    {
      "bufferView": 1,
      "byteOffset": 524256,
      "componentType": 5126,
      "count": 65532,
      "max": [
        0.999983012676239,
        0.9998900294303894
      ],
      "min": [
        0.0005099999834783375,
        0.0006420016288757324
      ],
      "type": "VEC2"
    },
    {
      "bufferView": 1,
      "byteOffset": 1048512,
      "componentType": 5126,
      "count": 65532,
      "max": [
        0.999983012676239,
        0.9998900294303894
      ],
      "min": [
        0.0005099999834783375,
        0.0006420016288757324
      ],
      "type": "VEC2"
    },
    {
      "bufferView": 1,
      "byteOffset": 1572768,
      "componentType": 5126,
      "count": 65532,
      "max": [
        0.999983012676239,
        0.9998900294303894
      ],
      "min": [
        0.0005099999834783375,
        0.0006420016288757324
      ],
      "type": "VEC2"
    },
    {
      "bufferView": 0,
      "componentType": 5125,
      "count": 329028,
      "type": "SCALAR"
    },
    {
      "bufferView": 2,
      "byteOffset": 1572768,
      "componentType": 5126,
      "count": 65532,
      "max": [
        0.5519829988479614,
        0.8759920001029968,
        0.24118700623512268
      ],
      "min": [
        -0.5780429840087891,
        -0.9065619707107544,
        -0.17812199890613556
      ],
      "type": "VEC3"
    },
    {
      "bufferView": 2,
      "byteOffset": 2359152,
      "componentType": 5126,
      "count": 65532,
      "max": [
        0.9999985694885254,
        0.9999911785125732,
        0.9999834299087524
      ],
      "min": [
        -0.9998862743377686,
        -0.9999969005584717,
        -0.9999779462814331
      ],
      "type": "VEC3"
    },
    {
      "bufferView": 3,
      "byteOffset": 1048512,
      "componentType": 5126,
      "count": 65532,
      "max": [
        0.9999237060546875,
        0.999988317489624,
        0.9998474717140198,
        1.0
      ],
      "min": [
        -0.9999926686286926,
        -0.9999759197235107,
        -0.9999759793281555,
        -1.0
      ],
      "type": "VEC4"
    },
    {
      "bufferView": 1,
      "byteOffset": 2097024,
      "componentType": 5126,
      "count": 65532,
      "max": [
        0.9993709921836853,
        0.9998260140419006
      ],
      "min": [
        0.00019099999917671084,
        3.993511199951172e-06
      ],
      "type": "VEC2"
    },
    {
      "bufferView": 1,
      "byteOffset": 2621280,
      "componentType": 5126,
      "count": 65532,
      "max": [
        0.9993709921836853,
        0.9998260140419006
      ],
      "min": [
        0.00019099999917671084,
        3.993511199951172e-06
      ],
      "type": "VEC2"
    },
    {
      "bufferView": 1,
      "byteOffset": 3145536,
      "componentType": 5126,
      "count": 65532,
      "max": [
        0.9993709921836853,
        0.9998260140419006
      ],
      "min": [
        0.00019099999917671084,
        3.993511199951172e-06
      ],
      "type": "VEC2"
    },
    {
      "bufferView": 1,
      "byteOffset": 3669792,
      "componentType": 5126,
      "count": 65532,
      "max": [
        0.9993709921836853,
        0.9998260140419006
      ],
      "min": [
        0.00019099999917671084,
        3.993511199951172e-06
      ],
      "type": "VEC2"
    },
    {
      "bufferView": 0,
      "byteOffset": 1316112,
      "componentType": 5125,
      "count": 330714,
      "type": "SCALAR"
    },
    {
      "bufferView": 2,
      "byteOffset": 3145536,
      "componentType": 5126,
      "count": 65534,
      "max": [
        0.5576859712600708,
        0.9296879768371582,
        0.2449900060892105
      ],
      "min": [
        -0.5736539959907532,
        -0.9231359958648682,
        -0.1995750069618225
      ],
      "type": "VEC3"
    },
    {
      "bufferView": 2,
      "byteOffset": 3931944,
      "componentType": 5126,
      "count": 65534,
      "max": [
        0.9999611377716064,
        0.9999873638153076,
        0.9999569654464722
      ],
      "min": [
        -0.999996542930603,
        -0.9999938011169434,
        -0.9999986290931702
      ],
      "type": "VEC3"
    },
    {
      "bufferView": 3,
      "byteOffset": 2097024,
      "componentType": 5126,
      "count": 65534,
      "max": [
        0.9999951720237732,
        0.9999750256538391,
        0.9998576641082764,
        1.0
      ],
      "min": [
        -0.9999606013298035,
        -0.9999923706054688,
        -0.9999626278877258,
        -1.0
      ],
      "type": "VEC4"
    },
    {
      "bufferView": 1,
      "byteOffset": 4194048,
      "componentType": 5126,
      "count": 65534,
      "max": [
        0.9999859929084778,
        0.9998859763145447
      ],
      "min": [
        0.000155999994603917,
        1.1026859283447266e-05
      ],
      "type": "VEC2"
    },
    {
      "bufferView": 1,
      "byteOffset": 4718320,
      "componentType": 5126,
      "count": 65534,
      "max": [
        0.9999859929084778,
        0.9998859763145447
      ],
      "min": [
        0.000155999994603917,
        1.1026859283447266e-05
      ],
      "type": "VEC2"
    },
    {
      "bufferView": 1,
      "byteOffset": 5242592,
      "componentType": 5126,
      "count": 65534,
      "max": [
        0.9999859929084778,
        0.9998859763145447
      ],
      "min": [
        0.000155999994603917,
        1.1026859283447266e-05
      ],
      "type": "VEC2"
    },
    {
      "bufferView": 1,
      "byteOffset": 5766864,
      "componentType": 5126,
      "count": 65534,
      "max": [
        0.9999859929084778,
        0.9998859763145447
      ],
      "min": [
        0.000155999994603917,
        1.1026859283447266e-05
      ],
      "type": "VEC2"
    },
    {
      "bufferView": 0,
      "byteOffset": 2638968,
      "componentType": 5125,
      "count": 324291,
      "type": "SCALAR"
    },
    {
      "bufferView": 2,
      "byteOffset": 4718352,
      "componentType": 5126,
      "count": 65532,
      "max": [
        0.5230910181999207,
        0.9497100114822388,
        0.06153099983930588
      ],
      "min": [
        -0.5748419761657715,
        -0.9117770195007324,
        -0.1260959953069687
      ],
      "type": "VEC3"
    },
    {
      "bufferView": 2,
      "byteOffset": 5504736,
      "componentType": 5126,
      "count": 65532,
      "max": [
        0.9999996423721313,
        0.9999619722366333,
        0.9999998807907104
      ],
      "min": [
        -0.9999997615814209,
        -0.9999773502349854,
        -0.9999917149543762
      ],
      "type": "VEC3"
    },
    {
      "bufferView": 3,
      "byteOffset": 3145568,
      "componentType": 5126,
      "count": 65532,
      "max": [
        0.9999797344207764,
        0.9999741315841675,
        0.9999959468841553,
        1.0
      ],
      "min": [
        -0.9999921321868896,
        -0.9999827146530151,
        -0.9999889731407166,
        -1.0
      ],
      "type": "VEC4"
    },
    {
      "bufferView": 1,
      "byteOffset": 6291136,
      "componentType": 5126,
      "count": 65532,
      "max": [
        0.9999600052833557,
        0.9994969964027405
      ],
      "min": [
        7.999999797903001e-05,
        8.702278137207031e-05
      ],
      "type": "VEC2"
    },
    {
      "bufferView": 1,
      "byteOffset": 6815392,
      "componentType": 5126,
      "count": 65532,
      "max": [
        0.9999600052833557,
        0.9994969964027405
      ],
      "min": [
        7.999999797903001e-05,
        8.702278137207031e-05
      ],
      "type": "VEC2"
    },
    {
      "bufferView": 1,
      "byteOffset": 7339648,
      "componentType": 5126,
      "count": 65532,
      "max": [
        0.9999600052833557,
        0.9994969964027405
      ],
      "min": [
        7.999999797903001e-05,
        8.702278137207031e-05
      ],
      "type": "VEC2"
    },
    {
      "bufferView": 1,
      "byteOffset": 7863904,
      "componentType": 5126,
      "count": 65532,
      "max": [
        0.9999600052833557,
        0.9994969964027405
      ],
      "min": [
        7.999999797903001e-05,
        8.702278137207031e-05
      ],
      "type": "VEC2"
    },
    {
      "bufferView": 0,
      "byteOffset": 3936132,
      "componentType": 5125,
      "count": 311319,
      "type": "SCALAR"
    },
    {
      "bufferView": 2,
      "byteOffset": 6291120,
      "componentType": 5126,
      "count": 65532,
      "max": [
        0.5646790266036987,
        0.734375,
        0.014675999991595745
      ],
      "min": [
        -0.5657399892807007,
        -0.9432029724121094,
        -0.14074799418449402
      ],
      "type": "VEC3"
    },
    {
      "bufferView": 2,
      "byteOffset": 7077504,
      "componentType": 5126,
      "count": 65532,
      "max": [
        0.9999607801437378,
        0.9999638795852661,
        0.9999943971633911
      ],
      "min": [
        -0.999994158744812,
        -0.999976634979248,
        -0.9999897480010986
      ],
      "type": "VEC3"
    },
    {
      "bufferView": 3,
      "byteOffset": 4194080,
      "componentType": 5126,
      "count": 65532,
      "max": [
        0.9999957084655762,
        0.9999879598617554,
        0.9999597668647766,
        1.0
      ],
      "min": [
        -0.9999871253967285,
        -0.9999929666519165,
        -0.9999931454658508,
        -1.0
      ],
      "type": "VEC4"
    },
    {
      "bufferView": 1,
      "byteOffset": 8388160,
      "componentType": 5126,
      "count": 65532,
      "max": [
        0.9998800158500671,
        0.9998229742050171
      ],
      "min": [
        8.800000068731606e-05,
        7.802248001098633e-05
      ],
      "type": "VEC2"
    },
    {
      "bufferView": 1,
      "byteOffset": 8912416,
      "componentType": 5126,
      "count": 65532,
      "max": [
        0.9998800158500671,
        0.9998229742050171
      ],
      "min": [
        8.800000068731606e-05,
        7.802248001098633e-05
      ],
      "type": "VEC2"
    },
    {
      "bufferView": 1,
      "byteOffset": 9436672,
      "componentType": 5126,
      "count": 65532,
      "max": [
        0.9998800158500671,
        0.9998229742050171
      ],
      "min": [
        8.800000068731606e-05,
        7.802248001098633e-05
      ],
      "type": "VEC2"
    },
    {
      "bufferView": 1,
      "byteOffset": 9960928,
      "componentType": 5126,
      "count": 65532,
      "max": [
        0.9998800158500671,
        0.9998229742050171
      ],
      "min": [
        8.800000068731606e-05,
        7.802248001098633e-05
      ],
      "type": "VEC2"
    },
    {
      "bufferView": 0,
      "byteOffset": 5181408,
      "componentType": 5125,
      "count": 326397,
      "type": "SCALAR"
    },
    {
      "bufferView": 2,
      "byteOffset": 7863888,
      "componentType": 5126,
      "count": 65532,
      "max": [
        0.5640379786491394,
        0.5685439705848694,
        -0.04535200074315071
      ],
      "min": [
        -0.5682430267333984,
        -0.9153149724006653,
        -0.20639200508594513
      ],
      "type": "VEC3"
    },
    {
      "bufferView": 2,
      "byteOffset": 8650272,
      "componentType": 5126,
      "count": 65532,
      "max": [
        0.9999960660934448,
        0.9999881982803345,
        0.999977707862854
      ],
      "min": [
        -0.9999315738677979,
        -0.9998899698257446,
        -0.9999860525131226
      ],
      "type": "VEC3"
    },
    {
      "bufferView": 3,
      "byteOffset": 5242592,
      "componentType": 5126,
      "count": 65532,
      "max": [
        0.9999920129776001,
        0.999943733215332,
        0.9999657273292542,
        1.0
      ],
      "min": [
        -0.9999974370002747,
        -0.9999920129776001,
        -0.999983012676239,
        -1.0
      ],
      "type": "VEC4"
    },
    {
      "bufferView": 1,
      "byteOffset": 10485184,
      "componentType": 5126,
      "count": 65532,
      "max": [
        0.9998180270195007,
        0.9999960064888
      ],
      "min": [
        4.8999998398358e-05,
        0.0001310110092163086
      ],
      "type": "VEC2"
    },
    {
      "bufferView": 1,
      "byteOffset": 11009440,
      "componentType": 5126,
      "count": 65532,
      "max": [
        0.9998180270195007,
        0.9999960064888
      ],
      "min": [
        4.8999998398358e-05,
        0.0001310110092163086
      ],
      "type": "VEC2"
    },
    {
      "bufferView": 1,
      "byteOffset": 11533696,
      "componentType": 5126,
      "count": 65532,
      "max": [
        0.9998180270195007,
        0.9999960064888
      ],
      "min": [
        4.8999998398358e-05,
        0.0001310110092163086
      ],
      "type": "VEC2"
    },
    {
      "bufferView": 1,
      "byteOffset": 12057952,
      "componentType": 5126,
      "count": 65532,
      "max": [
        0.9998180270195007,
        0.9999960064888
      ],
      "min": [
        4.8999998398358e-05,
        0.0001310110092163086
      ],
      "type": "VEC2"
    },
    {
      "bufferView": 0,
      "byteOffset": 6486996,
      "componentType": 5125,
      "count": 306876,
      "type": "SCALAR"
    },
    {
      "bufferView": 2,
      "byteOffset": 9436656,
      "componentType": 5126,
      "count": 65534,
      "max": [
        0.5932149887084961,
        0.8627820014953613,
        0.008808000013232231
      ],
      "min": [
        -0.5706490278244019,
        -0.9414060115814209,
        -0.0964059978723526
      ],
      "type": "VEC3"
    },
    {
      "bufferView": 2,
      "byteOffset": 10223064,
      "componentType": 5126,
      "count": 65534,
      "max": [
        0.9999290704727173,
        0.9999638795852661,
        0.9999971389770508
      ],
      "min": [
        -0.9999278783798218,
        -0.9994590878486633,
        -0.9999985694885254
      ],
      "type": "VEC3"
    },
    {
      "bufferView": 3,
      "byteOffset": 6291104,
      "componentType": 5126,
      "count": 65534,
      "max": [
        0.9999978542327881,
        0.9999540448188782,
        0.9999821782112122,
        1.0
      ],
      "min": [
        -0.9999850392341614,
        -0.9999997019767761,
        -0.9999366402626038,
        -1.0
      ],
      "type": "VEC4"
    },
    {
      "bufferView": 1,
      "byteOffset": 12582208,
      "componentType": 5126,
      "count": 65534,
      "max": [
        0.9999470114707947,
        0.9998670220375061
      ],
      "min": [
        2.9000000722589903e-05,
        4.70280647277832e-05
      ],
      "type": "VEC2"
    },
    {
      "bufferView": 1,
      "byteOffset": 13106480,
      "componentType": 5126,
      "count": 65534,
      "max": [
        0.9999470114707947,
        0.9998670220375061
      ],
      "min": [
        2.9000000722589903e-05,
        4.70280647277832e-05
      ],
      "type": "VEC2"
    },
    {
      "bufferView": 1,
      "byteOffset": 13630752,
      "componentType": 5126,
      "count": 65534,
      "max": [
        0.9999470114707947,
        0.9998670220375061
      ],
      "min": [
        2.9000000722589903e-05,
        4.70280647277832e-05
      ],
      "type": "VEC2"
    },
    {
      "bufferView": 1,
      "byteOffset": 14155024,
      "componentType": 5126,
      "count": 65534,
      "max": [
        0.9999470114707947,
        0.9998670220375061
      ],
      "min": [
        2.9000000722589903e-05,
        4.70280647277832e-05
      ],
      "type": "VEC2"
    },
    {
      "bufferView": 0,
      "byteOffset": 7714500,
      "componentType": 5125,
      "count": 294825,
      "type": "SCALAR"
    },
    {
      "bufferView": 2,
      "byteOffset": 11009472,
      "componentType": 5126,
      "count": 8306,
      "max": [
        0.514868974685669,
        0.8663010001182556,
        0.01716800034046173
      ],
      "min": [
        -0.5701929926872253,
        -0.8952599763870239,
        -0.01765500009059906
      ],
      "type": "VEC3"
    },
    {
      "bufferView": 2,
      "byteOffset": 11109144,
      "componentType": 5126,
      "count": 8306,
      "max": [
        0.9998766183853149,
        0.9996494650840759,
        0.9996101260185242
      ],
      "min": [
        -0.9996814727783203,
        -0.9999752044677734,
        -0.9999071359634399
      ],
      "type": "VEC3"
    },
    {
      "bufferView": 3,
      "byteOffset": 7339648,
      "componentType": 5126,
      "count": 8306,
      "max": [
        0.9994972348213196,
        0.9998832941055298,
        0.9986947178840637,
        1.0
      ],
      "min": [
        -0.9999500513076782,
        -0.9991140365600586,
        -0.9999807476997375,
        -1.0
      ],
      "type": "VEC4"
    },
    {
      "bufferView": 1,
      "byteOffset": 14679296,
      "componentType": 5126,
      "count": 8306,
      "max": [
        0.9999960064888,
        0.9997040033340454
      ],
      "min": [
        4.600000102072954e-05,
        0.00024002790451049805
      ],
      "type": "VEC2"
    },
    {
      "bufferView": 1,
      "byteOffset": 14745744,
      "componentType": 5126,
      "count": 8306,
      "max": [
        0.9999960064888,
        0.9997040033340454
      ],
      "min": [
        4.600000102072954e-05,
        0.00024002790451049805
      ],
      "type": "VEC2"
    },
    {
      "bufferView": 1,
      "byteOffset": 14812192,
      "componentType": 5126,
      "count": 8306,
      "max": [
        0.9999960064888,
        0.9997040033340454
      ],
      "min": [
        4.600000102072954e-05,
        0.00024002790451049805
      ],
      "type": "VEC2"
    },
    {
      "bufferView": 1,
      "byteOffset": 14878640,
      "componentType": 5126,
      "count": 8306,
      "max": [
        0.9999960064888,
        0.9997040033340454
      ],
      "min": [
        4.600000102072954e-05,
        0.00024002790451049805
      ],
      "type": "VEC2"
    },
    {
      "bufferView": 0,
      "byteOffset": 8893800,
      "componentType": 5125,
      "count": 25302,
      "type": "SCALAR"
    }
  ],
  "asset": {
    "extras": {
      "author": "diana.ketskalo (https://sketchfab.com/diana.ketskalo)",
      "license": "SKETCHFAB Standard (https://sketchfab.com/licenses)",
      "source": "https://sketchfab.com/3d-models/tomato-plant-diagram-31558a51bffc43e2851a6f3957883946",
      "title": "Tomato Plant Diagram"
    },
    "generator": "Sketchfab-16.74.0",
    "version": "2.0"
  },
  "bufferViews": [
    {
      "buffer": 0,
      "byteLength": 8995008,
      "name": "floatBufferViews",
      "target": 34963
    },
    {
      "buffer": 0,
      "byteLength": 14945088,
      "byteOffset": 8995008,
      "byteStride": 8,
      "name": "floatBufferViews",
      "target": 34962
    },
    {
      "buffer": 0,
      "byteLength": 11208816,
      "byteOffset": 23940096,
      "byteStride": 12,
      "name": "floatBufferViews",
      "target": 34962
    },
    {
      "buffer": 0,
      "byteLength": 7472544,
      "byteOffset": 35148912,
      "byteStride": 16,
      "name": "floatBufferViews",
      "target": 34962
    }
  ],
  "buffers": [
    {
      "byteLength": 42621456,
      "uri": "tomato_plant_diagram.bin"
    }
  ],
  "images": [
    {
      "uri": "textures/material_0_baseColor.jpeg"
    },
    {
      "uri": "textures/material_0_metallicRoughness.png"
    },
    {
      "uri": "textures/material_0_normal.jpeg"
    }
  ],
  "materials": [
    {
      "doubleSided": true,
      "name": "material_0",
      "normalTexture": {
        "index": 2,
        "texCoord": 2
      },
      "pbrMetallicRoughness": {
        "baseColorTexture": {
          "index": 0
        },
        "metallicRoughnessTexture": {
          "index": 1,
          "texCoord": 1
        }
      }
    }
  ],
  "meshes": [
    {
      "name": "Object_0",
      "primitives": [
        {
          "attributes": {
            "NORMAL": 1,
            "POSITION": 0,
            "TANGENT": 2,
            "TEXCOORD_0": 3,
            "TEXCOORD_1": 4,
            "TEXCOORD_2": 5,
            "TEXCOORD_3": 6
          },
          "indices": 7,
          "material": 0,
          "mode": 4
        }
      ]
    },
    {
      "name": "Object_1",
      "primitives": [
        {
          "attributes": {
            "NORMAL": 9,
            "POSITION": 8,
            "TANGENT": 10,
            "TEXCOORD_0": 11,
            "TEXCOORD_1": 12,
            "TEXCOORD_2": 13,
            "TEXCOORD_3": 14
          },
          "indices": 15,
          "material": 0,
          "mode": 4
        }
      ]
    },
    {
      "name": "Object_2",
      "primitives": [
        {
          "attributes": {
            "NORMAL": 17,
            "POSITION": 16,
            "TANGENT": 18,
            "TEXCOORD_0": 19,
            "TEXCOORD_1": 20,
            "TEXCOORD_2": 21,
            "TEXCOORD_3": 22
          },
          "indices": 23,
          "material": 0,
          "mode": 4
        }
      ]
    },
    {
      "name": "Object_3",
      "primitives": [
        {
          "attributes": {
            "NORMAL": 25,
            "POSITION": 24,
            "TANGENT": 26,
            "TEXCOORD_0": 27,
            "TEXCOORD_1": 28,
            "TEXCOORD_2": 29,
            "TEXCOORD_3": 30
          },
          "indices": 31,
          "material": 0,
          "mode": 4
        }
      ]
    },
    {
      "name": "Object_4",
      "primitives": [
        {
          "attributes": {
            "NORMAL": 33,
            "POSITION": 32,
            "TANGENT": 34,
            "TEXCOORD_0": 35,
            "TEXCOORD_1": 36,
            "TEXCOORD_2": 37,
            "TEXCOORD_3": 38
          },
          "indices": 39,
          "material": 0,
          "mode": 4
        }
      ]
    },
    {
      "name": "Object_5",
      "primitives": [
        {
          "attributes": {
            "NORMAL": 41,
            "POSITION": 40,
            "TANGENT": 42,
            "TEXCOORD_0": 43,
            "TEXCOORD_1": 44,
            "TEXCOORD_2": 45,
            "TEXCOORD_3": 46
          },
          "indices": 47,
          "material": 0,
          "mode": 4
        }
      ]
    },
    {
      "name": "Object_6",
      "primitives": [
        {
          "attributes": {
            "NORMAL": 49,
            "POSITION": 48,
            "TANGENT": 50,
            "TEXCOORD_0": 51,
            "TEXCOORD_1": 52,
            "TEXCOORD_2": 53,
            "TEXCOORD_3": 54
          },
          "indices": 55,
          "material": 0,
          "mode": 4
        }
      ]
    },
    {
      "name": "Object_7",
      "primitives": [
        {
          "attributes": {
            "NORMAL": 57,
            "POSITION": 56,
            "TANGENT": 58,
            "TEXCOORD_0": 59,
            "TEXCOORD_1": 60,
            "TEXCOORD_2": 61,
            "TEXCOORD_3": 62
          },
          "indices": 63,
          "material": 0,
          "mode": 4
        }
      ]
    }
  ],
  "nodes": [
    {
      "children": [
        1
      ],
      "matrix": [
        1.0,
        0.0,
        0.0,
        0.0,
        0.0,
        2.220446049250313e-16,
        -1.0,
        0.0,
        0.0,
        1.0,
        2.220446049250313e-16,
        0.0,
        0.0,
        0.0,
        0.0,
        1.0
      ],
      "name": "Sketchfab_model"
    },
    {
      "children": [
        2
      ],
      "name": "root"
    },
    {
      "children": [
        3
      ],
      "matrix": [
        1.0,
        0.0,
        0.0,
        0.0,
        0.0,
        2.220446049250313e-16,
        1.0,
        0.0,
        0.0,
        -1.0,
        2.220446049250313e-16,
        0.0,
        0.0,
        0.0,
        0.0,
        1.0
      ],
      "name": "GLTF_SceneRootNode"
    },
    {
      "children": [
        4,
        5,
        6,
        7,
        8,
        9,
        10,
        11
      ],
      "name": "_0"
    },
    {
      "mesh": 0,
      "name": "Object_4"
    },
    {
      "mesh": 1,
      "name": "Object_5"
    },
    {
      "mesh": 2,
      "name": "Object_6"
    },
    {
      "mesh": 3,
      "name": "Object_7"
    },
    {
      "mesh": 4,
      "name": "Object_8"
    },
    {
      "mesh": 5,
      "name": "Object_9"
    },
    {
      "mesh": 6,
      "name": "Object_10"
    },
    {
      "mesh": 7,
      "name": "Object_11"
    }
  ],
  "samplers": [
    {
      "magFilter": 9729,
      "minFilter": 9987,
      "wrapS": 10497,
      "wrapT": 10497
    }
  ],
  "scene": 0,
  "scenes": [
    {
      "name": "Sketchfab_Scene",
      "nodes": [
        0
      ]
    }
  ],
  "textures": [
    {
      "sampler": 0,
      "source": 0
    },
    {
      "sampler": 0,
      "source": 1
    },
    {
      "sampler": 0,
      "source": 2
    }
  ]
}
