{
  "accessors": [
    {
      "bufferView": 2,
      "componentType": 5126,
      "count": 26530,
      "max": [
        0.14948931336402893,
        0.3999999761581421,
        0.13094469904899597
      ],
      "min": [
        -0.1523086130619049,
        0.0,
        -0.16900569200515747
      ],
      "type": "VEC3"
    },
    {
      "bufferView": 2,
      "byteOffset": 318360,
      "componentType": 5126,
      "count": 26530,
      "max": [
        0.9998769760131836,
        0.9999872446060181,
        0.9998836517333984
      ],
      "min": [
        -0.9996803402900696,
        -0.9999849796295166,
        -0.9996833205223083
      ],
      "type": "VEC3"
    },
    {
      "bufferView": 1,
      "componentType": 5126,
      "count": 26530,
      "max": [
        0.9790129661560059,
        0.9981820583343506
      ],
      "min": [
        0.0018196393502876163,
        0.0018196702003479004
      ],
      "type": "VEC2"
    },
    {
      "bufferView": 0,
      "componentType": 5125,
      "count": 107391,
      "type": "SCALAR"
    }
  ],
  "asset": {
    "extras": {
      "author": "ellievaskali (https://sketchfab.com/ellievaskali)",
      "license": "CC-BY-4.0 (http://creativecommons.org/licenses/by/4.0/)",
      "source": "https://sketchfab.com/3d-models/tomato-plant-60d3cb49e21d46cf81f1e7e295793102",
      "title": "Tomato plant"
    },
    "generator": "Sketchfab-16.95.0",
    "version": "2.0"
  },
  "bufferViews": [
    {
      "buffer": 0,
      "byteLength": 429564,
      "name": "floatBufferViews",
      "target": 34963
    },
    {
      "buffer": 0,
      "byteLength": 212240,
      "byteOffset": 429564,
      "byteStride": 8,
      "name": "floatBufferViews",
      "target": 34962
    },
    {
      "buffer": 0,
      "byteLength": 636720,
      "byteOffset": 641804,
      "byteStride": 12,
      "name": "floatBufferViews",
      "target": 34962
    }
  ],
  "buffers": [
    {
      "byteLength": 1278524,
      "uri": "tomato_plant.bin"
    }
  ],
  "images": [
    {
      "uri": "textures/Tomato_Plant_924576020_baseColor.png"
    }
  ],
  "materials": [
    {
      "doubleSided": true,
      "name": "Tomato_Plant_924576020",
      "pbrMetallicRoughness": {
        "baseColorTexture": {
          "index": 0
        },
        "metallicFactor": 0.0,
        "roughnessFactor": 0.8
      }
    }
  ],
  "meshes": [
    {
      "name": "Object_0",
      "primitives": [
        {
          "attributes": {
            "NORMAL": 1,
            "POSITION": 0,
            "TEXCOORD_0": 2
          },
          "indices": 3,
          "material": 0,
          "mode": 4
        }
      ]
    }
  ],
  "nodes": [
    {
      "children": [
        1
      ],
      "matrix": [
        1.0,
        0.0,
        0.0,
        0.0,
        0.0,
        2.220446049250313e-16,
        -1.0,
        0.0,
        0.0,
        1.0,
        2.220446049250313e-16,
        0.0,
        0.0,
        0.0,
        0.0,
        1.0
      ],
      "name": "Sketchfab_model"
    },
    {
      "children": [
        2
      ],
      "name": "root"
    },
    {
      "children": [
        3
      ],
      "matrix": [
        1.0,
        0.0,
        0.0,
        0.0,
        0.0,
        2.220446049250313e-16,
        1.0,
        0.0,
        0.0,
        -1.0,
        2.220446049250313e-16,
        0.0,
        0.0,
        0.0,
        0.0,
        1.0
      ],
      "name": "GLTF_SceneRootNode"
    },
    {
      "children": [
        4
      ],
      "name": "world_1"
    },
    {
      "children": [
        5
      ],
      "name": "Tomato Plant_0"
    },
    {
      "mesh": 0,
      "name": "Object_5"
    }
  ],
  "samplers": [
    {
      "magFilter": 9729,
      "minFilter": 9987,
      "wrapS": 10497,
      "wrapT": 10497
    }
  ],
  "scene": 0,
  "scenes": [
    {
      "name": "Sketchfab_Scene",
      "nodes": [
        0
      ]
    }
  ],
  "textures": [
    {
      "sampler": 0,
      "source": 0
    }
  ]
}
